<svg width="908" height="166" xmlns="http://www.w3.org/2000/svg" xmlns:xlink="http://www.w3.org/1999/xlink" overflow="hidden"><defs><filter id="fx0" x="-10%" y="-10%" width="120%" height="120%" filterUnits="userSpaceOnUse" primitiveUnits="userSpaceOnUse"><feComponentTransfer color-interpolation-filters="sRGB"><feFuncR type="discrete" tableValues="0 0"/><feFuncG type="discrete" tableValues="0 0"/><feFuncB type="discrete" tableValues="0 0"/><feFuncA type="linear" slope="0.4" intercept="0"/></feComponentTransfer><feGaussianBlur stdDeviation="1.76408 1.76408"/></filter><filter id="fx1" x="-10%" y="-10%" width="120%" height="120%" filterUnits="userSpaceOnUse" primitiveUnits="userSpaceOnUse"><feComponentTransfer color-interpolation-filters="sRGB"><feFuncR type="discrete" tableValues="0 0"/><feFuncG type="discrete" tableValues="0 0"/><feFuncB type="discrete" tableValues="0 0"/><feFuncA type="linear" slope="0.4" intercept="0"/></feComponentTransfer><feGaussianBlur stdDeviation="1.76408 1.76408"/></filter><clipPath id="clip2"><rect x="186" y="288" width="908" height="166"/></clipPath><clipPath id="clip3"><rect x="44" y="31" width="86" height="85"/></clipPath><clipPath id="clip4"><rect x="0" y="0" width="175" height="167"/></clipPath><clipPath id="clip5"><rect x="48" y="31" width="742" height="85"/></clipPath><clipPath id="clip6"><rect x="0" y="0" width="836" height="167"/></clipPath></defs><g clip-path="url(#clip2)" transform="translate(-186 -288)"><g clip-path="url(#clip3)" filter="url(#fx0)" transform="translate(185 287)"><g clip-path="url(#clip4)"><path d="M11.6719-27.3867C10.875-26.1445 9.77344-24.4922 8.36719-22.4297 7.92187-21.7969 7.60547-21.3398 7.41797-21.0586 5.19141-22.8398 2.83594-24.2344 0.351562-25.2422 6.9375-31.0312 12.3867-41.4141 16.6992-56.3906L24.2578-53.3672C25.0078-53.0859 25.3945-52.7051 25.418-52.2246 25.4414-51.7441 25.1016-51.3398 24.3984-51.0117 23.4141-50.5664 22.7695-49.9687 22.4648-49.2188 22.3008-48.8203 22.0664-48.2461 21.7617-47.4961 21.6914-47.332 21.6328-47.2031 21.5859-47.1094 23.2031-46.9453 24.2695-46.875 24.7852-46.8984 30.7148-47.1562 36.2812-48.7383 41.4844-51.6445L45.4219-46.3359 45.4219-46.9688C45.4453-49.4062 45.2812-52.3359 44.9297-55.7578L52.8398-54.8086C53.5898-54.7148 53.9707-54.4043 53.9824-53.877 53.9941-53.3496 53.6367-52.7812 52.9102-52.1719 52.2773-51.7734 51.9727-50.2852 51.9961-47.707L51.9961-33.7148 61.4883-33.7148C63.7148-33.7148 66.3047-33.9141 69.2578-34.3125L69.2578-27.7383C66.2812-28.1367 63.6914-28.3359 61.4883-28.3359L52.0664-28.3359C52.1367-24.0703 52.6406-19.6289 53.5781-15.0117 55.875-19.043 57.6914-23.2617 59.0273-27.668L65.6719-24.3633C66.5391-23.8945 66.9902-23.4199 67.0254-22.9395 67.0605-22.459 66.6797-22.043 65.8828-21.6914 64.9922-21.3867 64.3008-20.7188 63.8086-19.6875 61.2773-14.9062 58.6523-10.5586 55.9336-6.64453 58.1602-2.12109 60.082 0.972656 61.6992 2.63672 62.0273 2.91797 62.2969 3.05859 62.5078 3.05859 62.5547 3.05859 62.666 3.02344 62.8418 2.95312 63.0176 2.88281 63.1641 2.58984 63.2812 2.07422 63.3984 1.34766 63.4805 0.345703 63.5273-0.931641 63.5742-2.20898 63.5625-3.42188 63.4922-4.57031 66.0938-2.36719 68.6133-0.855469 71.0508-0.0351562 69.8555 4.27734 68.7539 7.13672 67.7461 8.54297 66.7383 10.1133 65.3906 10.875 63.7031 10.8281 59.7656 10.7578 55.6641 6.79687 51.3984-1.05469 50.9297-0.5625 50.3437 0.0703125 49.6406 0.84375 48.2578 2.4375 46.6406 4.04297 44.7891 5.66016 43.1016 3.85547 40.9922 2.29688 38.4609 0.984375 41.4375-0.609375 44.7891-3.44531 48.5156-7.52344 46.6406-13.5 45.5859-20.4375 45.3516-28.3359L37.582-28.3359 37.582-19.8281C38.4727-20.2266 39.832-20.8359 41.6602-21.6562 42.9727-22.2656 43.8984-22.6875 44.4375-22.9219L44.4375-16.1016C42.0938-15.3281 39.8086-14.4609 37.582-13.5L37.582 3.51562C37.6055 7.33594 33.2344 9.24609 24.4688 9.24609 24.0234 6.94922 23.0156 4.35938 21.4453 1.47656 26.25 2.20312 28.9219 2.54297 29.4609 2.49609 30.6797 2.58984 31.2305 1.96875 31.1133 0.632812L31.1133-10.4766C27.5273-8.76562 24.457-7.20703 21.9023-5.80078L19.0195-12.832C22.8633-13.8164 26.8945-15.1875 31.1133-16.9453L31.1133-28.3359 27.9492-28.3359C25.793-28.3359 23.1914-28.1367 20.1445-27.7383L20.1445-34.3125C23.4258-33.9141 26.0273-33.7148 27.9492-33.7148L31.1133-33.7148 31.1133-41.5195C28.5352-40.9805 26.5195-40.5938 25.0664-40.3594 24.2461-42.1406 22.9219-44.0039 21.0938-45.9492 20.5547-44.6836 19.6641-42.7266 18.4219-40.0781 18.3047-39.8203 18.2109-39.6211 18.1406-39.4805L18.1406 3.33984C18.1172 5.30859 18.3047 7.80469 18.7031 10.8281L11.0742 10.8281C11.3086 8.90625 11.4727 7.44141 11.5664 6.43359 11.6367 5.49609 11.6719 4.46484 11.6719 3.33984ZM62.1211-36.8086C59.707-40.6523 56.9531-44.0859 53.8594-47.1094L59.0977-51.082C62.1445-47.9648 65.0039-44.4844 67.6758-40.6406ZM37.582-33.7148 45.4219-33.7148 45.4219-44.1562C45.1406-44.0859 44.6836-44.1328 44.0508-44.2969 43.6523-44.3672 43.3242-44.4023 43.0664-44.4023 42.6914-44.4023 42.2812-44.3438 41.8359-44.2266 41.625-44.1562 41.3203-44.0742 40.9219-43.9805 39.7266-43.6289 38.6133-43.3359 37.582-43.1016Z" fill="#D0CECE" transform="matrix(1.02 0 0 1.02 51.0816 97)"/></g></g><text fill="#D0CECE" font-family="DengXian,DengXian_MSFontService,sans-serif" font-weight="700" font-size="72" transform="translate(244.002 383)">俄</text><g clip-path="url(#clip5)" filter="url(#fx1)" transform="translate(259 287)"><g clip-path="url(#clip6)"><path d="M52.207-9.52734 52.207-2.70703C49.7227-3.10547 46.9805-3.31641 43.9805-3.33984L13.043-3.33984C10.0898-3.29297 7.25391-3.08203 4.53516-2.70703L4.53516-9.52734C7.04297-9.12891 9.87891-8.91797 13.043-8.89453L43.9805-8.89453C46.8398-8.91797 49.582-9.12891 52.207-9.52734ZM27.1406-56.25 34.5586-53.8945C35.3789-53.5898 35.7715-53.1914 35.7363-52.6992 35.7012-52.207 35.2383-51.7617 34.3477-51.3633 33.8086-51.1758 33.2812-50.6016 32.7656-49.6406 32.6016-49.3359 32.3555-48.8789 32.0273-48.2695 31.6289-47.4961 31.3477-46.9688 31.1836-46.6875L45.2109-46.6875C49.4531-46.6875 52.9102-46.875 55.582-47.25 55.3477-42.3516 55.0078-37.9102 54.5625-33.9258 54.3516-30.457 53.1562-28.1836 50.9766-27.1055 49.0312-25.8867 44.332-24.832 36.8789-23.9414 36.4102-25.7461 35.4727-28.2422 34.0664-31.4297 33.9727-31.6406 33.9023-31.8047 33.8555-31.9219 37.9102-31.3594 40.7344-31.0781 42.3281-31.0781 44.6484-31.0312 46.1719-31.6992 46.8984-33.082 47.6484-34.2539 48.0234-36.9375 48.0234-41.1328L21.1641-41.1328 21.1641-21.4805 55.3008-21.4805C58.2305-21.457 61.1133-21.6562 63.9492-22.0781 63.7617-13.7109 63.2812-6.55078 62.5078-0.597656 62.5312 6.78516 56.2617 10.7227 43.6992 11.2148 43.5117 8.75391 42.5039 6.25781 40.6758 3.72656 42.5742 3.84375 44.168 3.90234 45.457 3.90234 48.5273 3.90234 50.6953 3.63281 51.9609 3.09375 53.9297 2.46094 55.0898 0.820312 55.4414-1.82812 56.1914-6.49219 56.5547-11.1914 56.5312-15.9258L22.6055-15.9258C20.0977-15.9258 17.168-15.7148 13.8164-15.293 14.2383-18.1992 14.4609-20.8828 14.4844-23.3438L14.4844-39.2695C14.4609-42.1289 14.2148-44.8125 13.7461-47.3203 16.5352-46.8984 19.418-46.6875 22.3945-46.6875L23.9766-46.6875C25.4062-50.1094 26.4609-53.2969 27.1406-56.25ZM94.6758-20.3906C90.9258-14.0625 86.4609-6.09375 81.2812 3.51562L74.8828-1.40625C80.625-8.48437 85.6172-17.0508 89.8594-27.1055 91.6172-24.1758 93.2227-21.9375 94.6758-20.3906ZM76.5352-44.7539 81.2812-49.7109C84.4453-47.0156 88.6758-43.1719 93.9727-38.1797L89.1211-33.1523C85.3477-37.2539 81.1523-41.1211 76.5352-44.7539ZM119.531-47.5664 119.531-42.7148 129.094-42.7148C130.922-42.7148 133.418-42.9375 136.582-43.3828 136.16-40.2422 135.949-37.8164 135.949-36.1055L135.949-14.9414C135.949-13.1133 136.137-10.7344 136.512-7.80469L128.812-7.80469C128.836-8.01562 128.883-8.32031 128.953-8.71875 129.258-10.875 129.398-12.1758 129.375-12.6211L119.531-12.6211 119.531 1.40625C119.578 4.80469 119.766 8.00391 120.094 11.0039L112.254 11.0039C112.559 7.95703 112.746 4.75781 112.816 1.40625L112.816-12.6211 103.254-12.6211C103.301-11.9414 103.441-10.5703 103.676-8.50781 103.746-7.94531 103.793-7.52344 103.816-7.24219L96.1875-7.24219C96.5859-10.6875 96.7851-13.2539 96.7852-14.9414L96.7852-36.1055C96.7851-37.7227 96.5859-40.125 96.1875-43.3125 99.9375-42.9141 102.48-42.7148 103.816-42.7148L112.816-42.7148 112.816-47.5664C112.84-49.418 112.652-52.3125 112.254-56.25L120.305-55.125C121.266-54.9844 121.77-54.6504 121.816-54.123 121.863-53.5957 121.43-52.9453 120.516-52.1719 119.812-51.6562 119.484-50.1211 119.531-47.5664ZM103.254-37.3359 103.254-18.0352 112.816-18.0352 112.816-37.3359ZM119.531-37.3359 119.531-18.0352 129.375-18.0352 129.375-37.3359ZM183.164-26.4375 186.926-31.0781C187.395-30.7266 188.332-30.0352 189.738-29.0039 194.215-25.7461 197.039-23.6484 198.211-22.7109L195.188-19.1953 202.676-19.1953C204.41-19.2656 206.625-19.4531 209.32-19.7578L209.32-13.1484C205.945-13.5234 203.73-13.7344 202.676-13.7812L186.258-13.7812C191.578-3.44531 200.555 2.21484 213.188 3.19922 209.273 5.56641 206.977 7.80469 206.297 9.91406 193.5 5.95312 184.711-1.25391 179.93-11.707 176.883-0.761719 168.07 6.87891 153.492 11.2148 151.875 8.54297 149.859 6.42187 147.445 4.85156 161.625 2.55469 170.25-3.65625 173.32-13.7812L157.746-13.7812C156.715-13.7344 154.465-13.5234 150.996-13.1484L150.996-19.7578C153.762-19.4531 156.012-19.2656 157.746-19.1953L174.305-19.1953C174.375-20.0156 174.434-21 174.48-22.1484 174.48-22.7344 174.492-23.3672 174.516-24.0469 174.516-24.6562 174.516-25.541 174.516-26.7012 174.516-27.8613 174.492-28.8164 174.445-29.5664 174.422-30.4336 174.352-31.3594 174.234-32.3438L181.723-31.2188C182.988-31.0312 183.662-30.7969 183.744-30.5156 183.826-30.2344 183.867-30.0469 183.867-29.9531 183.867-29.4609 183.445-28.875 182.602-28.1953 182.086-27.6797 181.793-26.6719 181.723-25.1719L181.301-19.1953 192.375-19.1953C189.68-21.4219 186.609-23.8359 183.164-26.4375ZM159.188-32.5898 151.559-32.5898C151.863-35.1914 152.051-37.2539 152.121-38.7773L152.121-40.9219C152.051-42.7031 151.863-44.9883 151.559-47.7773 154.137-47.4258 156.539-47.2031 158.766-47.1094L178.629-47.1094C177.434-47.9297 175.488-49.2187 172.793-50.9766 172.137-51.4219 171.656-51.7383 171.352-51.9258L175.254-57.2695C178.863-54.9492 182.824-52.2891 187.137-49.2891L185.414-47.1094 201.094-47.1094C203.461-47.2266 205.91-47.4492 208.441-47.7773 208.16-45.2695 207.973-43.0547 207.879-41.1328L207.879-39.7617C207.949-38.0039 208.137-35.918 208.441-33.5039L200.812-33.5039C201.141-36.1992 201.328-38.2617 201.375-39.6914L201.375-41.7305 171.492-41.7305 176.625-37.7578C177.492-37.125 177.926-36.5742 177.926-36.1055 177.926-36.0586 177.873-35.8711 177.768-35.543 177.662-35.2148 176.965-34.9922 175.676-34.875 174.926-34.8047 174.012-34.3008 172.934-33.3633 168.738-29.1914 163.793-25.1836 158.098-21.3398 156.668-23.1445 154.559-24.7266 151.77-26.0859 159.785-30.0937 166.172-35.3086 170.93-41.7305L158.625-41.7305 158.625-38.7773C158.695-37.1367 158.883-35.0742 159.188-32.5898ZM182.461-36.2461 186.188-41.4141C193.547-37.3125 199.91-33.0703 205.277-28.6875L200.883-23.5195C195.609-28.4883 189.469-32.7305 182.461-36.2461ZM255.445-49.5703 255.445-41.8008 270.352-41.8008C273.164-41.8242 276.023-42.0586 278.93-42.5039 278.578-39.9492 278.391-37.0195 278.367-33.7148L278.367-19.5469C278.414-15.6562 278.602-12.6328 278.93-10.4766L271.23-10.4766C271.512-11.9531 271.699-13.1719 271.793-14.1328L255.445-14.1328 255.445 0.0351562C255.422 4.91016 255.598 8.36719 255.973 10.4062L248.168 10.4062C248.543 7.99219 248.742 4.62891 248.766 0.316406L248.766-14.1328 232.559-14.1328C232.605-13.4766 232.781-12.1406 233.086-10.125 233.133-9.79688 233.168-9.55078 233.191-9.38672L225.422-9.38672C225.797-11.8008 226.02-15.3984 226.09-20.1797L226.09-33.2227C226.043-36.9258 225.82-40.0195 225.422-42.5039 228.492-42.082 231.516-41.8477 234.492-41.8008L248.766-41.8008 248.766-47.25C248.766-50.4609 248.566-53.4844 248.168-56.3203L255.656-55.4766C256.688-55.3828 257.244-55.2246 257.326-55.002 257.408-54.7793 257.449-54.6328 257.449-54.5625 257.449-54.1875 257.168-53.6953 256.605-53.0859 255.762-52.3828 255.375-51.2109 255.445-49.5703ZM248.766-36.2461 232.559-36.2461 232.559-19.6875 248.766-19.6875ZM255.445-36.2461 255.445-19.6875 271.793-19.6875 271.793-36.2461ZM303.609 9.38672 295.84 9.38672C296.262 7.46484 296.484 4.37109 296.508 0.105469L296.508-44.0156C296.438-47.8359 296.168-50.9531 295.699-53.3672 297.996-52.7578 300.879-52.4297 304.348-52.3828L343.793-52.3828C346.957-52.4297 349.84-52.6875 352.441-53.1562 351.996-50.5312 351.75-47.4141 351.703-43.8047L351.703-1.125C351.797 3.39844 352.043 6.66797 352.441 8.68359L344.531 8.68359C344.977 6.83203 345.211 5.13281 345.234 3.58594L302.977 3.58594C302.953 5.20312 303.164 7.13672 303.609 9.38672ZM302.977-1.75781 345.234-1.75781 345.234-46.8984 302.977-46.8984ZM333.281-23.8711C336.305-20.9648 338.941-17.9648 341.191-14.8711L337.887-12.1992C340.418-12.3867 342.293-12.5742 343.512-12.7617L343.512-6.22266C340.16-6.57422 337.477-6.78516 335.461-6.85547L313.066-6.85547C311.449-6.78516 308.754-6.55078 304.98-6.15234L304.98-12.832C308.824-12.4102 311.52-12.1758 313.066-12.1289L320.414-12.1289 320.414-23.9414 314.367-23.9414C312.422-23.8477 310.09-23.6016 307.371-23.2031L307.371-29.918C310.582-29.4727 312.891-29.2266 314.297-29.1797L320.414-29.1797 320.414-36.8086 312.68-36.8086C310.852-36.6914 308.555-36.4336 305.789-36.0352L305.789-42.8555C308.297-42.4805 310.594-42.2227 312.68-42.082L335.531-42.082C337.781-42.2227 340.078-42.457 342.422-42.7852L342.422-36.1055C339.633-36.5039 337.336-36.7383 335.531-36.8086L326.953-36.8086 326.953-29.1797 333.562-29.1797C335.531-29.2734 337.863-29.5195 340.559-29.918L340.559-23.2031C337.98-23.6016 335.648-23.8477 333.562-23.9414L326.953-23.9414 326.953-12.1289 335.461-12.1289 335.602-12.1289C333.141-15.3164 330.809-18 328.605-20.1797ZM397.723-12.4102C395.426-7.93359 392.402-3.21094 388.652 1.75781 386.73-0.0468749 384.504-1.24219 381.973-1.82812 386.848-5.74219 390.785-11.9648 393.785-20.4961L399.234-17.8242C400.289-17.332 400.828-16.7344 400.852-16.0312 400.828-15.3516 400.289-14.8125 399.234-14.4141 398.695-14.0391 398.191-13.3711 397.723-12.4102ZM421.91-27.2461 410.027-27.2461 410.027 1.125C410.121 4.33594 409.301 6.42188 407.566 7.38281 405.973 8.50781 402.352 9.23438 396.703 9.5625 396.023 6.60938 394.945 4.00781 393.469 1.75781 397.5 2.32031 399.879 2.58984 400.605 2.56641 402.645 2.63672 403.605 1.79297 403.488 0.0351562L403.488-27.2461 393.188-27.2461C392.227-27.293 390.164-27.1055 387-26.6836L387-33.3633C390.047-32.8477 391.992-32.6133 392.836-32.6602L421.77-32.6602C422.918-32.6133 425.004-32.8477 428.027-33.3633L428.027-26.6836C424.535-27.1055 422.496-27.293 421.91-27.2461ZM391.184-44.3672 391.184-51.082C392.777-50.8008 393.961-50.6191 394.734-50.5371 395.508-50.4551 396.27-50.4141 397.02-50.4141L417.445-50.4141C418.781-50.3672 420.996-50.5664 424.09-51.0117L424.09-44.3672C420.691-44.8359 418.547-45.0586 417.656-45.0352L397.301-45.0352C396.316-45.082 394.277-44.8594 391.184-44.3672ZM412.488-16.9453 418.043-20.4961C422.027-14.4961 425.484-8.58984 428.414-2.77734L422.93 1.125C419.227-6.28125 415.746-12.3047 412.488-16.9453ZM365.695-52.1016C367.664-51.7734 369.867-51.5977 372.305-51.5742L383.273-51.5742C383.953-51.5273 386.156-51.7734 389.883-52.3125 388.148-47.7422 385.195-40.6641 381.023-31.0781 385.547-25.2422 387.703-19.8398 387.492-14.8711 387.398-8.56641 383.133-5.03906 374.695-4.28906 374.695-6.07031 374.039-8.10938 372.727-10.4062L372.727 2.77734C372.703 4.37109 372.902 6.63281 373.324 9.5625L365.695 9.5625C365.906 8.17969 366.059 6.99609 366.152 6.01172 366.223 5.07422 366.258 3.99609 366.258 2.77734L366.258-44.8945C366.234-47.5195 366.047-49.9219 365.695-52.1016ZM372.727-46.1953 372.727-11.8477C374.719-11.5664 375.996-11.4141 376.559-11.3906 379.465-11.3672 380.918-12.7734 380.918-15.6094 380.918-15.9141 380.906-16.1953 380.883-16.4531 380.367-20.9297 377.941-25.4648 373.605-30.0586 375.48-33.3867 377.766-38.7656 380.461-46.1953ZM434.602-35.0156 434.602-41.5898C437.273-41.168 439.523-40.9453 441.352-40.9219L444.164-40.9219 444.164-46.5469C444.187-47.8359 444-50.6719 443.602-55.0547L451.16-53.8945C452.379-53.707 453.023-53.4668 453.094-53.1738 453.164-52.8809 453.199-52.6992 453.199-52.6289 453.199-52.1367 452.73-51.6211 451.793-51.082 451.02-50.7539 450.656-49.4766 450.703-47.25L450.703-40.9219 451.652-40.9219C453.387-40.9453 455.543-41.168 458.121-41.5898L458.121-34.9453C455.379-35.4141 453.223-35.6602 451.652-35.6836L450.703-35.6836 450.703-26.6133C451.5-27.1289 453.352-28.5 456.258-30.7266 456.609-31.0078 456.879-31.2187 457.066-31.3594 456.645-27.8672 456.445-25.1016 456.469-23.0625 454.195-21.8672 452.273-20.7891 450.703-19.8281L450.703 0.703125C458.391-3.46875 463.793-10.6055 466.91-20.707L465.398-20.707C463.43-20.707 460.98-20.4844 458.051-20.0391L458.051-26.6836C461.355-26.3086 463.805-26.1094 465.398-26.0859L468.211-26.0859C468.422-27.3047 468.621-28.5586 468.809-29.8477L467.121-29.8477C465.598-29.8477 463.184-29.625 459.879-29.1797L459.879-35.8242C462.551-35.4727 464.414-35.2734 465.469-35.2266 463.992-37.7109 462.434-40.0195 460.793-42.1523L465.926-45.5273C468.012-42.9727 469.98-40.2422 471.832-37.3359L468.703-35.2266 476.508-35.2266C474.984-38.3672 473.344-41.1797 471.586-43.6641L477-46.6172C478.945-43.8281 480.75-40.875 482.414-37.7578L477.492-35.2266 481.605-35.2266C484.324-39.7969 486.457-44.1445 488.004-48.2695 479.004-46.8164 469.887-45.8555 460.652-45.3867 459.855-47.0742 458.273-49.4062 455.906-52.3828 458.742-51.8906 461.871-51.6445 465.293-51.6445 468.551-51.6445 472.066-51.8672 475.84-52.3125 483.738-53.3672 489.387-54.9258 492.785-56.9883L497.953-51.3633C498.375-50.8945 498.586-50.4844 498.586-50.1328 498.586-49.8984 498.504-49.6875 498.34-49.5 498.059-49.2422 497.695-49.1133 497.25-49.1133 496.922-49.1133 496.512-49.1953 496.02-49.3594 495.738-49.4531 495.363-49.5 494.895-49.5 494.098-49.5 493.055-49.3594 491.766-49.0781 491.437-48.9609 490.863-48.8203 490.043-48.6562 489.645-48.5859 489.352-48.5273 489.164-48.4805L494.648-45.7383C495.797-45.1758 496.348-44.5898 496.301-43.9805 496.207-43.3945 495.562-42.9727 494.367-42.7148 493.641-42.5977 492.891-41.9062 492.117-40.6406 491.906-40.2891 491.625-39.8203 491.273-39.2344 490.383-37.6641 489.562-36.3281 488.812-35.2266L489.832-35.2266C491.895-35.2266 494.437-35.4258 497.461-35.8242L497.461-29.1797C494.484-29.6016 491.941-29.8242 489.832-29.8477L475.629-29.8477C475.488-28.5586 475.301-27.3047 475.066-26.0859L492.328-26.0859C494.18-26.0859 496.629-26.2852 499.676-26.6836L499.676-20.0391C496.512-20.4844 494.062-20.707 492.328-20.707L473.766-20.707C473.484-19.4883 473.121-18.3047 472.676-17.1562L485.859-17.1562C488.133-17.1562 491.086-17.3789 494.719-17.8242 491.508-10.9336 488.309-5.87109 485.121-2.63672 490.16 0.269531 495.902 2.12109 502.348 2.91797 500.004 4.58203 497.988 6.77344 496.301 9.49219 490.324 7.45312 484.992 4.85156 480.305 1.6875 476.531 4.5 471.258 7.35938 464.484 10.2656 463.477 8.01562 461.742 5.83594 459.281 3.72656 465.516 3.11719 470.895 1.17187 475.418-2.10938 473.051-4.17188 470.812-6.43359 468.703-8.89453 465.867-3.90234 462.012 0.855469 457.137 5.37891 455.051 3.62109 452.906 2.08594 450.703 0.773438L450.703 1.82812C450.773 4.64062 450.012 6.48047 448.418 7.34766 446.965 8.33203 443.672 8.94141 438.539 9.17578 438.234 7.11328 437.402 4.61719 436.043 1.6875 439.254 2.32031 441.316 2.63672 442.23 2.63672 443.613 2.70703 444.258 1.91016 444.164 0.246094L444.164-15.5742C441.82-13.9102 439.875-12.375 438.328-10.9688L433.09-17.0859C436.418-18.3281 440.109-20.1562 444.164-22.5703L444.164-35.6836 441.352-35.6836C440.156-35.6836 437.906-35.4609 434.602-35.0156ZM484.207-12.0586 474.258-12.0586C475.828-9.99609 477.727-8.05078 479.953-6.22266 481.5-7.83984 482.918-9.78516 484.207-12.0586ZM513.141-5.58984 513.141-43.6641C513.164-45.3516 512.953-47.7539 512.508-50.8711 515.391-50.4023 517.758-50.1797 519.609-50.2031L529.277-50.2031C531.129-50.1797 533.484-50.4023 536.344-50.8711 535.875-48.3398 535.652-45.9375 535.676-43.6641L535.676-9.80859C535.91-9.90234 536.309-10.0312 536.871-10.1953 538.488-10.7578 539.871-11.2617 541.02-11.707 540.48-9.19922 540.211-6.86719 540.211-4.71094 521.203-0.9375 511.008 1.55859 509.625 2.77734L505.652-4.71094C508.887-4.94531 511.383-5.23828 513.141-5.58984ZM519.68-17.0156 519.68-6.43359C522.352-6.85547 525.504-7.47656 529.137-8.29688L529.137-17.0156ZM519.68-30.7617 519.68-22.2891 529.137-22.2891 529.137-30.7617ZM519.68-44.8242 519.68-36.0352 529.137-36.0352 529.137-44.8242ZM543.656-38.1094 548.578-38.3203C548.578-42.8438 548.508-46.2305 548.367-48.4805 548.227-50.6836 547.934-52.9453 547.488-55.2656L556.207-54.3164C557.121-54.1992 557.625-53.8711 557.719-53.332 557.766-52.8164 557.379-52.207 556.559-51.5039 555.785-51.082 555.422-49.7109 555.469-47.3906L555.469-38.5664 563.273-38.918C565.641-39.0117 568.348-39.3398 571.395-39.9023 570.715-33.082 570.164-22.2422 569.742-7.38281 569.625 0.257812 568.793 4.64062 567.246 5.76562 566.238 7.40625 562.055 8.42578 554.695 8.82422 554.203 6.55078 552.949 3.76172 550.934 0.457031 554.988 1.18359 557.637 1.54687 558.879 1.54688 561.27 1.75781 562.512 0.175781 562.605-3.19922 563.168-11.6367 563.602-21.7148 563.906-33.4336L555.469-33.082C555.633-14.6133 549.105 2.38419e-07 535.887 10.7578 532.84 8.76562 530.133 7.38281 527.766 6.60938 541.148-0.351562 548.062-13.4883 548.508-32.8008L544.395-32.5898C542.918-32.4961 540.539-32.2031 537.258-31.7109L536.906-38.6367C539.602-38.2852 541.852-38.1094 543.656-38.1094ZM639.492 3.72656C639.562 6.28125 638.859 7.99219 637.383 8.85938 636.07 9.79688 633.035 10.4766 628.277 10.8984 627.926 8.36719 626.824 5.82422 624.973 3.26953 628.09 3.80859 630.199 4.10156 631.301 4.14844 632.52 4.19531 633.094 3.73828 633.023 2.77734L633.023-0.386719 612.492-0.386719 612.492 4.35938C612.469 5.90625 612.668 8.0625 613.09 10.8281L605.531 10.8281C605.742 9.30469 605.895 8.07422 605.988 7.13672 606.059 6.24609 606.094 5.32031 606.094 4.35938L606.094-15.8555C606.047-17.7305 605.859-20.332 605.531-23.6602 608.766-23.3086 611.355-23.1094 613.301-23.0625L632.004-23.0625C633.926-23.1094 636.621-23.3086 640.09-23.6602 639.738-21.3633 639.539-18.7617 639.492-15.8555ZM614.215-39.6211 619.137-39.6211 619.137-42.5742 610.77-42.5742C609.363-42.5977 606.938-42.3867 603.492-41.9414L603.492-48.4102C606.656-48.0117 609.082-47.8242 610.77-47.8477L619.137-47.8477 619.137-48.6914C619.066-51.1055 618.867-53.707 618.539-56.4961L625.887-55.5469C627.059-55.4062 627.727-55.0781 627.891-54.5625 628.008-54.0469 627.586-53.4609 626.625-52.8047 625.945-52.3828 625.605-51.1172 625.605-49.0078L625.605-47.8477 634.605-47.8477C635.777-47.8242 638.18-48.0352 641.812-48.4805L641.812-41.9414C638.883-42.3867 636.48-42.5977 634.605-42.5742L625.605-42.5742 625.605-39.6211 631.582-39.6211C633.316-39.5742 635.742-39.7734 638.859-40.2188L638.859-33.7852C635.766-34.207 633.34-34.4062 631.582-34.3828L625.605-34.3828 625.605-31.2891 637.98-31.2891C639.41-31.2656 641.836-31.4766 645.258-31.9219L645.258-25.3125C641.695-25.6875 639.27-25.875 637.98-25.875L607.746-25.875C606.035-25.8984 603.656-25.6875 600.609-25.2422L600.609-31.9219C603.961-31.4766 606.387-31.2656 607.887-31.2891L619.137-31.2891 619.137-34.3828 614.215-34.3828C613.137-34.4062 610.723-34.207 606.973-33.7852L606.973-40.2188C608.613-39.9844 609.984-39.832 611.086-39.7617 612.117-39.668 613.16-39.6211 614.215-39.6211ZM598.887-45.0352C600.668-41.543 602.133-37.6289 603.281-33.293L597.094-31.0781C596.531-34.0078 595.688-36.8555 594.562-39.6211L594.562 2.35547C594.539 4.39453 594.715 7.125 595.09 10.5469L587.602 10.5469C587.789 8.64844 587.918 7.10156 587.988 5.90625 588.059 4.75781 588.094 3.57422 588.094 2.35547L588.094-36.7383C588.07-36.7148 588.023-36.6914 587.953-36.668 587.883-36.6445 587.836-36.6211 587.812-36.5977 587.203-36.293 586.84-35.5547 586.723-34.3828 586.137-30.4219 585.176-25.8867 583.84-20.7773 581.684-21.7383 579.387-22.2656 576.949-22.3594 579.105-26.9766 580.348-32.9766 580.676-40.3594L587.742-38.9883C587.836-38.9414 587.953-38.918 588.094-38.918L588.094-47.918C588.023-50.6602 587.836-53.3437 587.531-55.9688L594.879-55.0547C596.074-54.8906 596.742-54.5156 596.883-53.9297 596.953-53.3437 596.449-52.7344 595.371-52.1016 594.785-51.8437 594.516-50.4492 594.562-47.918L594.562-43.1016ZM612.492-14.3438 633.023-14.3438 633.023-17.8242 612.492-17.8242ZM633.023-5.66016 633.023-9.10547 612.492-9.10547 612.492-5.66016ZM651.094-4.35938C657.656-10.9922 663.293-18.8086 668.004-27.8086 669.504-24.1992 670.805-21.5859 671.906-19.9688 666.375-12.8906 661.641-6.24609 657.703-0.0351562ZM653.836-46.125 658.441-51.1523C662.941-47.2852 667.219-43.3242 671.273-39.2695L666.562-34.1016C661.945-39.0234 657.703-43.0312 653.836-46.125ZM673.699-52.1719C676.699-51.7266 679.289-51.5039 681.469-51.5039L700.91-51.5039C703.066-51.5273 705.609-51.7266 708.539-52.1016 708.141-49.5469 707.93-47.3789 707.906-45.5977L707.906-29.5664C707.906-27.9961 708.117-25.6641 708.539-22.5703 705.516-23.0156 702.996-23.25 700.98-23.2734L699.609-23.2734 699.609-0.457031C699.586 0.527344 699.855 1.07812 700.418 1.19531 700.934 1.33594 702.281 1.40625 704.461 1.40625 706.312 1.40625 707.555 1.14844 708.188 0.632812 709.289 0.09375 709.934-2.64844 710.121-7.59375 712.746-5.17969 715.125-3.375 717.258-2.17969 715.453 4.28906 712.336 7.40625 707.906 7.17188 706.711 7.3125 704.906 7.38281 702.492 7.38281 700.148 7.35937 698.355 7.19531 697.113 6.89062 694.371 6.11719 693.023 4.05469 693.07 0.703125L693.07-23.2734 687.902-23.2734C687.668-13.6406 686.145-6.73828 683.332-2.56641 680.801 1.72266 675.363 5.8125 667.02 9.70312 665.66 8.10938 663.445 6.28125 660.375 4.21875 674.273 1.17188 681.223-6.76172 681.223-19.582 681.223-20.1914 681.211-20.7539 681.188-21.2695L681.188-23.2734 680.766-23.2734C679.289-23.2734 676.934-23.0625 673.699-22.6406 674.145-25.7344 674.367-28.0664 674.367-29.6367L674.367-45.2461C674.367-46.3945 674.145-48.7031 673.699-52.1719ZM680.906-46.0547 680.906-28.6172 701.297-28.6172 701.297-46.0547Z" fill="#D0CECE" transform="matrix(1.02 0 0 1.02 50.5216 97)"/></g></g><text fill="#D0CECE" font-family="DengXian,DengXian_MSFontService,sans-serif" font-weight="700" font-size="72" transform="translate(316.002 383)">乌冲突中国际援助情况</text></g></svg>